<?xml version="1.0" encoding="utf-8"?>
<!-- Generator: Adobe Illustrator 21.1.0, SVG Export Plug-In . SVG Version: 6.00 Build 0)  -->
<svg version="1.1" id="Calque_1" xmlns="http://www.w3.org/2000/svg" xmlns:xlink="http://www.w3.org/1999/xlink" x="0px" y="0px"
	 viewBox="0 0 1000 1000" style="enable-background:new 0 0 1000 1000;" xml:space="preserve">
<style type="text/css">
	.st0{fill:#FFFFFF;}
</style>
<g id="Group_84_" transform="translate(660.000000, 171.000000)">
	<path id="Layer-1_97_" class="st0" d="M-331.8,242.3c-28.1-28.4,24.3-124.1,24.3-124.1c16.1-36.7,8.2-91.2-17.8-121.9l-116.4-137.2
		c-25.9-30.6-69.8-32.3-97.8-4l-80.2,81c-49.3,49.8-30.7,145.2-5.1,210.1c0,0,32.4,108.9,285.2,364.2S21,798.4,21,798.4
		c64.3,25.8,158.7,44.6,208.1-5.2l80.2-81c28-28.3,26.3-72.6-3.9-98.8L169.3,496.1c-30.3-26.3-84.3-34.2-120.7-18
		c0,0-98.8,48.8-127,20.3l-124.7-126L-331.8,242.3L-331.8,242.3z"/>
</g>
</svg>
