<?xml version="1.0" encoding="UTF-8" standalone="no"?><!DOCTYPE svg PUBLIC "-//W3C//DTD SVG 1.1//EN" "http://www.w3.org/Graphics/SVG/1.1/DTD/svg11.dtd"><svg width="100%" height="100%" viewBox="0 0 2500 917" version="1.1" xmlns="http://www.w3.org/2000/svg" xmlns:xlink="http://www.w3.org/1999/xlink" xml:space="preserve" xmlns:serif="http://www.serif.com/" style="fill-rule:evenodd;clip-rule:evenodd;stroke-linejoin:round;stroke-miterlimit:2;"><g><path d="M1547.73,610.093c-7.447,-10.312 -18.905,-15.468 -32.654,-15.468c-13.75,0 -25.208,5.156 -32.655,15.468c-6.875,8.594 -9.739,20.624 -9.739,34.947c0,14.322 3.437,26.352 10.312,34.946c7.447,9.739 18.332,14.895 32.654,14.895c13.75,0 25.208,-5.156 32.655,-14.895c6.875,-9.166 9.739,-20.624 9.739,-34.946c-0.573,-13.75 -4.01,-25.78 -10.312,-34.947Zm-8.02,64.164c-5.729,8.02 -13.75,12.031 -25.207,12.031c-10.885,0 -18.906,-4.011 -24.635,-12.031c-5.156,-6.875 -7.447,-16.614 -7.447,-28.645c0,-11.457 2.291,-21.196 7.447,-28.644c5.729,-8.02 13.75,-12.031 24.635,-12.031c10.885,0 18.905,4.011 25.207,12.031c5.156,7.448 7.447,16.614 7.447,28.644c0,11.458 -2.291,21.197 -7.447,28.645Z" style="fill:#25939b;fill-rule:nonzero;"/><path d="M1446.9,560.252c-4.01,0 -5.729,3.437 -5.729,10.885c0,6.875 2.291,10.885 5.729,10.885c2.864,0 6.302,-1.719 6.302,-10.885c-0.573,-9.166 -4.011,-10.885 -6.302,-10.885Z" style="fill:#25939b;fill-rule:nonzero;"/><path d="M1588.4,260.631c-33.8,0 -62.445,12.031 -86.506,35.519c-24.061,23.489 -36.092,52.133 -36.092,84.788c0,37.238 13.177,67.601 39.529,91.089c24.062,21.197 50.988,31.509 81.351,31.509c34.373,0 63.59,-12.031 87.652,-35.519c24.061,-23.489 36.092,-52.133 36.092,-85.361c0,-33.227 -12.031,-61.872 -36.092,-85.933c-24.062,-24.061 -52.706,-36.092 -85.934,-36.092Zm60.727,183.897c-16.614,17.187 -37.811,25.208 -61.872,25.208c-22.343,0 -42.394,-8.594 -60.154,-25.208c-17.186,-16.613 -26.353,-37.81 -26.353,-63.59c0,-24.634 8.594,-45.258 25.207,-61.872c16.614,-17.187 37.238,-25.207 61.872,-25.207c24.635,0 44.686,8.593 61.3,25.207c16.613,16.614 25.207,37.81 25.207,63.018c0,24.634 -8.594,45.258 -25.207,62.444Z" style="fill:#25939b;fill-rule:nonzero;"/><rect x="1441.75" y="596.917" width="10.312" height="96.245" style="fill:#25939b;"/><path d="M1616.48,595.198c-12.604,0 -22.343,4.01 -28.645,11.458l0,-9.739l-10.312,0l0,96.245l10.312,0l0,-51.56l0,-9.166c0,-2.864 0.573,-4.583 0.573,-6.302c2.865,-14.322 12.031,-21.77 28.072,-21.77c8.593,0 14.895,2.292 18.332,6.875c3.438,4.01 4.583,10.885 4.583,20.051l0,61.299l10.312,0l0,-63.017c0.573,-22.916 -10.884,-34.374 -33.227,-34.374Z" style="fill:#25939b;fill-rule:nonzero;"/><rect x="1724.75" y="561.398" width="10.312" height="131.764" style="fill:#25939b;"/><path d="M1410.24,571.71l-10.312,0l0,121.452l10.312,0l0,-86.506l18.332,0l0,-10.312l-18.332,0l0,-24.634Z" style="fill:#25939b;fill-rule:nonzero;"/><path d="M1183.37,264.641l-35.519,0l0,162.701l-170.721,-178.169l0,249.78l35.519,0l0,-163.846l170.721,178.168l0,-248.634Z" style="fill:#25939b;fill-rule:nonzero;"/><path d="M1182.8,596.917l0,13.176c-2.865,-4.01 -5.729,-6.874 -9.739,-9.166c-6.875,-4.01 -14.322,-5.729 -22.343,-5.729c-14.322,0 -25.207,5.156 -32.655,15.468c-6.874,8.594 -10.312,20.624 -10.312,34.946c0,14.323 3.438,25.78 9.74,34.947c7.447,10.312 18.332,15.468 32.654,15.468c14.322,0 25.78,-5.156 32.655,-15.468l0,0.573c0,12.603 -1.146,20.624 -4.01,25.207c-5.156,9.739 -14.895,14.322 -29.791,14.322c-8.02,0 -14.322,-1.719 -18.905,-4.583c-5.729,-3.438 -8.593,-8.594 -9.166,-15.468l0,-2.292l-9.739,0l0,2.292c0,9.739 4.01,17.759 12.03,22.915c6.875,4.583 14.896,6.875 24.635,6.875c17.759,0 30.936,-5.729 38.956,-16.614c4.01,-6.302 6.302,-14.895 6.302,-26.926l0,-89.37l-10.312,0l0,-0.573Zm-7.448,76.767c-5.729,8.02 -13.749,12.031 -24.634,12.031c-10.885,0 -19.478,-4.011 -25.207,-12.031c-5.156,-6.875 -7.448,-16.614 -7.448,-28.072c0,-11.457 2.865,-21.196 8.021,-28.071c5.729,-8.021 13.749,-12.031 24.634,-12.031c10.885,0 19.478,4.01 24.634,12.031c5.156,7.447 7.448,16.614 7.448,28.071c0,11.458 -2.865,21.197 -7.448,28.072Z" style="fill:#25939b;fill-rule:nonzero;"/><path d="M1270.45,498.953l128.9,0l0,-33.228l-93.381,0l0,-78.485l91.089,0l0,-32.655l-91.089,0l0,-56.716l93.381,0l0,-33.228l-128.9,0l0,234.312Z" style="fill:#25939b;fill-rule:nonzero;"/><path d="M1358.1,181l-48.696,48.695l17.187,14.322l61.299,-41.821l-29.79,-21.196Z" style="fill:#25939b;fill-rule:nonzero;"/><path d="M1372.43,647.904c-4.01,-2.864 -10.885,-5.156 -21.197,-8.02l-0.573,0l-1.145,-0.573c-17.76,-4.583 -26.353,-10.885 -26.353,-18.333c0,-5.156 2.291,-9.166 7.447,-12.603c4.01,-2.865 9.166,-4.011 15.468,-4.011c14.322,0 22.343,6.302 24.062,19.479l0,1.718l10.312,0l-0.573,-2.291c-1.146,-9.166 -4.583,-16.041 -10.885,-21.197c-5.729,-5.156 -13.75,-7.448 -22.343,-7.448c-8.593,0 -16.041,2.292 -22.343,5.729c-7.447,4.583 -10.884,11.458 -10.884,20.624c0,7.448 2.864,13.177 8.02,17.76c4.583,3.437 14.322,7.447 29.79,11.458c1.146,0 2.292,0.572 2.865,0.572l1.718,0.573c10.885,2.865 16.614,8.021 16.614,15.468c0,6.302 -2.291,10.885 -7.447,14.323c-4.584,2.864 -10.312,4.583 -17.187,4.583c-15.468,0 -24.634,-7.448 -26.926,-22.343l-0.573,-1.719l-9.739,0l0,2.292c1.146,10.312 4.583,18.332 12.031,24.061c6.874,5.156 15.468,8.021 25.207,8.021c9.166,0 17.187,-2.292 23.488,-6.302c7.448,-5.156 11.458,-12.604 11.458,-21.197c0,-9.166 -3.437,-16.041 -10.312,-20.624Z" style="fill:#25939b;fill-rule:nonzero;"/><path d="M1294.51,642.175c0,-13.749 -3.437,-25.207 -9.739,-33.227c-6.875,-9.167 -17.759,-14.323 -30.936,-14.323c-13.749,0 -24.634,5.156 -31.509,16.041c-6.302,8.594 -9.166,20.624 -9.166,34.374c0,14.322 2.864,25.78 9.166,34.946c7.448,10.312 17.76,15.468 31.509,15.468c9.739,0 18.333,-2.865 25.207,-8.021c5.156,-4.01 9.166,-9.739 12.031,-16.613l0.573,-1.719l-8.594,-4.583l-1.145,2.291c-5.156,13.177 -14.323,19.479 -28.072,19.479c-10.312,0 -17.759,-4.011 -23.488,-12.031c-5.156,-6.875 -7.448,-15.468 -7.448,-26.353l71.611,0l0,-5.729Zm-71.038,-4.01c1.146,-9.166 4.01,-16.614 8.593,-22.916c5.729,-6.874 13.177,-10.312 22.916,-10.312c9.739,0 16.614,3.438 21.77,10.885c4.583,5.729 6.874,13.75 6.874,22.343l-60.153,0Z" style="fill:#25939b;fill-rule:nonzero;"/><path d="M2164.16,678.267l-29.791,-81.35l-10.884,0l36.092,96.245l9.166,0l37.238,-96.245l-10.885,0l-30.936,81.35Z" style="fill:#25939b;fill-rule:nonzero;"/><path d="M2105.72,560.252c-4.01,0 -5.729,3.437 -5.729,10.885c0,6.875 2.292,10.885 5.729,10.885c2.864,0 6.302,-1.719 6.302,-10.885c-0.573,-9.166 -4.01,-10.885 -6.302,-10.885Z" style="fill:#25939b;fill-rule:nonzero;"/><rect x="2100.57" y="596.917" width="10.312" height="96.245" style="fill:#25939b;"/><path d="M2362.38,293.859c21.77,0 42.967,8.593 63.591,25.78l0,-42.394c-19.478,-11.458 -40.102,-17.187 -60.726,-17.187c-38.384,0 -69.893,14.322 -93.954,42.967c-19.478,23.488 -29.79,49.841 -29.79,79.631c0,33.228 12.03,61.872 35.519,85.361c23.488,23.488 52.133,34.946 85.36,34.946c22.343,0 43.54,-5.729 63.591,-17.187l0,-42.393c-5.729,4.583 -11.458,9.166 -16.614,12.603c-5.156,3.438 -10.312,6.302 -14.895,8.021c-8.593,4.01 -19.478,6.301 -31.509,6.301c-24.061,0 -44.112,-8.593 -60.726,-25.207c-16.614,-16.613 -24.634,-37.81 -24.634,-61.872c0,-24.634 8.02,-45.831 24.634,-63.017c16.041,-17.76 36.092,-26.353 60.153,-26.353Z" style="fill:#25939b;fill-rule:nonzero;"/><path d="M2069.06,571.71l-10.312,0l0,121.452l10.312,0l0,-86.506l18.333,0l0,-10.312l-18.333,0l0,-24.634Z" style="fill:#25939b;fill-rule:nonzero;"/><path d="M2141.24,296.15c-24.061,-24.061 -52.706,-35.519 -85.933,-35.519c-33.801,0 -62.445,12.031 -86.506,35.519c-24.062,23.489 -36.092,52.133 -36.092,84.788c0,37.238 13.176,67.601 39.529,91.089c24.061,21.197 50.987,31.509 81.35,31.509c34.373,0 63.591,-12.031 87.652,-35.519c24.061,-23.489 36.092,-52.133 36.092,-85.361c0,-33.8 -12.031,-62.444 -36.092,-86.506Zm-24.634,148.378c-16.614,17.187 -37.811,25.208 -61.872,25.208c-22.343,0 -42.394,-8.594 -60.153,-25.208c-17.187,-16.613 -26.353,-37.81 -26.353,-63.59c0,-24.634 8.593,-45.258 25.207,-61.872c16.614,-17.187 37.238,-25.207 61.872,-25.207c24.634,0 44.685,8.593 61.299,25.207c16.614,16.614 25.207,37.81 25.207,63.018c0,24.634 -8.593,45.258 -25.207,62.444Z" style="fill:#25939b;fill-rule:nonzero;"/><path d="M1830.74,610.093c-7.447,-10.312 -18.905,-15.468 -32.654,-15.468c-13.75,0 -25.207,5.156 -32.655,15.468c-6.875,9.167 -9.739,20.624 -9.739,34.947c0,14.322 3.437,26.352 10.312,34.946c7.447,9.739 18.332,14.895 32.655,14.895c13.749,0 25.207,-5.156 32.654,-14.895c6.875,-9.166 9.739,-20.624 9.739,-34.946c0,-13.75 -3.437,-25.78 -10.312,-34.947Zm-7.447,64.164c-5.729,8.02 -14.322,12.031 -25.207,12.031c-10.885,0 -18.906,-4.011 -24.635,-12.031c-5.156,-6.875 -7.447,-16.614 -7.447,-28.645c0,-11.457 2.291,-21.196 7.447,-28.644c5.729,-8.02 13.75,-12.031 24.635,-12.031c10.885,0 18.905,4.011 25.207,12.031c5.156,7.448 7.447,16.614 7.447,28.644c0,11.458 -2.864,21.197 -7.447,28.645Z" style="fill:#25939b;fill-rule:nonzero;"/><path d="M1785.48,264.641l0,234.312l104.266,0l0,-33.228l-69.32,0l0,-201.084l-34.946,0Z" style="fill:#25939b;fill-rule:nonzero;"/><path d="M1926.41,665.664c-1.719,6.301 -5.156,11.457 -9.739,15.468c-5.156,3.437 -10.885,5.728 -17.76,5.728c-10.885,0 -18.905,-4.01 -24.634,-12.03c-5.156,-6.875 -7.448,-16.614 -7.448,-28.645c0,-11.457 2.292,-21.197 7.448,-28.644c5.729,-8.021 13.749,-12.031 24.634,-12.031c7.448,0 13.177,1.719 17.76,5.729c4.01,2.865 6.301,6.875 8.02,10.885l1.146,2.864l8.593,-5.728l-0.573,-1.719c-5.729,-14.322 -17.186,-21.77 -34.946,-21.77c-14.322,0 -25.207,5.156 -32.655,15.468c-6.874,8.593 -9.739,20.624 -9.739,34.946c0,13.75 3.438,25.78 9.739,34.947c7.448,10.312 18.333,15.468 32.082,15.468c10.312,0 19.478,-2.865 26.353,-8.594c5.156,-4.583 8.593,-10.312 10.312,-17.186l0.573,-1.719l-9.166,-5.156l0,1.719Z" style="fill:#25939b;fill-rule:nonzero;"/><path d="M2027.81,596.917l0,13.749c-6.875,-10.312 -17.759,-16.041 -32.655,-16.041c-14.322,0 -25.207,5.156 -32.654,15.468c-6.875,8.594 -9.739,20.624 -9.739,34.947c0,14.322 3.437,26.352 10.312,34.946c7.447,9.739 18.905,14.895 32.654,14.895c14.323,0 25.207,-5.156 32.655,-15.468l0,13.176l10.312,0l0,-96.245l-10.885,0l0,0.573Zm-7.447,77.34c-5.729,8.02 -13.75,12.031 -24.635,12.031c-10.885,0 -19.478,-4.011 -25.207,-12.031c-5.156,-6.875 -7.447,-16.614 -7.447,-28.645c0,-12.03 2.864,-21.196 8.02,-28.644c5.729,-8.02 13.749,-12.031 24.634,-12.031c10.885,0 19.479,4.011 24.635,12.031c5.156,7.448 7.447,16.614 7.447,28.644c0,11.458 -2.291,21.197 -7.447,28.645Z" style="fill:#25939b;fill-rule:nonzero;"/><path d="M2295.35,642.175c0,-13.749 -3.437,-25.207 -9.739,-33.227c-6.875,-9.167 -17.759,-14.323 -30.936,-14.323c-13.749,0 -24.634,5.156 -31.509,16.041c-6.302,8.594 -9.166,20.624 -9.166,34.374c0,14.322 2.864,25.78 9.166,34.946c7.448,10.312 17.76,15.468 31.509,15.468c9.739,0 18.333,-2.865 25.207,-8.021c5.156,-4.01 9.166,-9.739 12.031,-16.613l0.573,-1.719l-8.594,-4.583l-1.145,2.291c-5.156,13.177 -14.323,19.479 -28.072,19.479c-9.739,0 -17.759,-4.011 -23.488,-12.031c-5.156,-6.875 -7.448,-15.468 -7.448,-26.353l71.611,0l0,-5.729Zm-71.038,-4.01c1.146,-9.166 4.01,-16.614 8.593,-22.916c5.729,-6.874 13.177,-10.312 22.916,-10.312c9.739,0 16.614,3.438 21.77,10.885c4.583,5.729 6.874,13.75 6.874,22.343l-60.153,0Z" style="fill:#25939b;fill-rule:nonzero;"/></g><path d="M658.607,559.679l116.296,-115.723c30.936,-30.936 40.675,-76.768 24.634,-117.443c-15.468,-38.956 -43.539,-95.672 -90.516,-142.076c-46.404,-46.404 -102.547,-73.903 -140.931,-88.798c-12.603,-4.583 -26.353,-7.447 -39.529,-7.447c-28.645,0 -56.716,10.884 -77.913,32.081l-115.151,114.578c-32.082,31.509 -41.248,80.777 -22.915,121.453c5.729,13.176 12.603,26.352 19.478,38.956l2.864,4.583l-256.081,256.081c-4.01,4.011 -6.302,9.74 -6.302,15.468l0,128.9c0,12.031 9.739,21.77 21.77,21.77l128.9,0c12.031,0 21.77,-9.739 21.77,-21.77l0,-60.153l60.153,0c12.031,0 21.77,-9.739 21.77,-21.77l0,-60.153l60.153,0c12.031,0 21.77,-9.739 21.77,-21.77c0,-12.03 -9.739,-21.77 -21.77,-21.77l-81.923,0c-12.031,0 -21.77,9.74 -21.77,21.77l0,60.154l-60.153,0c-12.031,0 -21.77,9.739 -21.77,21.769l0,60.154l-84.787,0l0,-97.964l261.81,-261.811c7.447,-7.447 8.593,-18.332 3.437,-26.925c-10.312,-16.614 -19.478,-34.947 -28.071,-53.852c-10.885,-24.634 -5.156,-53.851 13.749,-72.757l115.151,-114.578c18.332,-18.332 45.831,-24.061 70.465,-14.895c34.946,13.177 84.788,37.811 126.036,78.486c41.248,41.248 66.455,91.662 80.204,127.181c9.739,24.062 4.01,52.133 -14.895,70.466l-116.297,115.723c-18.905,18.906 -47.549,24.635 -72.184,14.323c-18.905,-8.021 -36.664,-17.187 -53.851,-27.499c-5.156,-2.865 -10.885,-4.01 -16.614,-2.865c-5.729,1.146 -10.312,5.156 -13.749,9.74c-2.865,5.156 -4.01,10.884 -2.865,16.613c1.146,5.729 5.156,10.312 9.739,13.75c18.906,11.457 38.957,21.769 59.581,30.363c41.248,18.332 88.225,9.166 120.307,-22.343Z" style="fill:#25939b;fill-rule:nonzero;"/></svg>