<?xml version="1.0" encoding="UTF-8" standalone="no"?><!DOCTYPE svg PUBLIC "-//W3C//DTD SVG 1.1//EN" "http://www.w3.org/Graphics/SVG/1.1/DTD/svg11.dtd"><svg width="100%" height="100%" viewBox="0 0 2084 2084" version="1.1" xmlns="http://www.w3.org/2000/svg" xmlns:xlink="http://www.w3.org/1999/xlink" xml:space="preserve" xmlns:serif="http://www.serif.com/" style="fill-rule:evenodd;clip-rule:evenodd;stroke-linecap:round;stroke-linejoin:round;"><g id="_x33_4.-Time-Copy"><path id="Layer-1_69_" d="M1037.41,1287.01c52.367,0 95.036,-42.669 95.036,-96.975c0,-52.366 -42.669,-96.975 -95.036,-96.975c-52.366,0 -95.035,42.669 -95.035,96.975c0,54.306 42.669,96.975 95.035,96.975Z" style="fill:none;fill-rule:nonzero;stroke:#fff;stroke-width:77.58px;"/><path id="Layer-2_59_" d="M1388.46,833.167l-271.53,271.53" style="fill:none;fill-rule:nonzero;stroke:#fff;stroke-width:77.58px;"/><path id="Layer-3_39_" d="M1755.03,468.541l-122.188,122.189" style="fill:none;fill-rule:nonzero;stroke:#fff;stroke-width:77.58px;"/><path id="Layer-4_25_" d="M1830.67,515.089l-122.189,-122.188" style="fill:none;fill-rule:nonzero;stroke:#fff;stroke-width:77.58px;"/><path id="Layer-5_13_" d="M1836.49,1191.98c0,-438.327 -354.928,-795.195 -795.195,-795.195c-438.327,0 -795.195,356.868 -795.195,795.195c0,438.327 354.929,795.195 795.195,795.195c440.267,0 795.195,-356.868 795.195,-795.195Z" style="fill:none;fill-rule:nonzero;stroke:#fff;stroke-width:77.58px;"/><path id="Layer-6_11_" d="M1037.41,394.84c73.701,0 133.826,-60.124 133.826,-135.765c0,-75.64 -60.125,-135.765 -133.826,-135.765c-73.701,0 -133.825,60.125 -133.825,135.765c0,75.641 60.124,135.765 133.825,135.765Z" style="fill:none;fill-rule:nonzero;stroke:#fff;stroke-width:77.58px;"/></g></svg>