<?xml version="1.0" encoding="UTF-8" standalone="no"?><!DOCTYPE svg PUBLIC "-//W3C//DTD SVG 1.1//EN" "http://www.w3.org/Graphics/SVG/1.1/DTD/svg11.dtd"><svg width="100%" height="100%" viewBox="0 0 2084 2084" version="1.1" xmlns="http://www.w3.org/2000/svg" xmlns:xlink="http://www.w3.org/1999/xlink" xml:space="preserve" xmlns:serif="http://www.serif.com/" style="fill-rule:evenodd;clip-rule:evenodd;stroke-linecap:round;stroke-linejoin:round;stroke-miterlimit:10;"><g id="Group_25_"><path id="Layer-1_25_" d="M888.726,1525.97l-613.578,0l0,312.804c0,27.5 22.344,49.843 49.843,49.843l1452.31,0c27.5,0 49.843,-22.343 49.843,-49.843l0,-312.804l-613.578,0c-10.312,48.124 -53.28,82.498 -104.841,82.498l-115.154,0c-51.561,0 -94.528,-34.374 -104.841,-82.498Z" style="fill:none;fill-rule:nonzero;stroke:#fff;stroke-width:68.75px;"/><path id="Layer-2_24_" d="M225.306,654.59c0,-48.124 37.811,-85.935 85.935,-85.935l1478.09,0c48.124,0 85.936,37.811 85.936,85.935l0,739.044l-1649.96,0l0,-739.044Z" style="fill:none;fill-rule:nonzero;stroke:#fff;stroke-width:68.75px;"/><path id="Layer-3_22_" d="M1211.84,1525.97l663.421,0l0,-132.34l-1649.96,0l0,132.34l663.42,0c-1.718,-8.594 -3.437,-15.468 -3.437,-24.062l0,-106.56l329.991,0l0,106.56c0,8.594 -1.718,15.468 -3.437,24.062Z" style="fill:none;fill-rule:nonzero;stroke:#fff;stroke-width:68.75px;"/><path id="Layer-4_21_" d="M885.289,1393.63l329.991,0l0,106.559c0,58.436 -48.123,106.56 -106.559,106.56l-115.154,0c-58.436,0 -106.559,-48.124 -106.559,-106.56l0,-106.559l-1.719,0Z" style="fill:none;fill-rule:nonzero;stroke:#fff;stroke-width:68.75px;"/><path id="Layer-5_16_" d="M720.293,568.655l0,-164.996c0,-91.091 73.905,-164.996 164.996,-164.996l329.991,0c91.092,0 164.996,73.905 164.996,164.996l0,164.996l-659.983,0Z" style="fill:none;fill-rule:nonzero;stroke:#fff;stroke-width:68.75px;"/></g></svg>